<svg id="logo" width="157" height="80" viewBox="0 0 157 80" fill="none" xmlns="http://www.w3.org/2000/svg">
<path fill-rule="evenodd" clip-rule="evenodd" d="M0 64.141V0H23.0617V22.0264H35.5727V0H58.6344V28.8071C59.7965 25.7346 61.5117 22.9953 63.757 20.7003C68.3223 16.034 74.7456 13.5463 82.1806 13.5463C89.4178 13.5463 95.7434 15.8968 100.259 20.5103C101.108 21.3772 101.879 22.3101 102.572 23.3037L99.4723 14.0969H123.804L127.804 31.2578L131.868 14.0969H156.298L139.161 65.0188C139.161 65.0197 139.16 65.0207 139.16 65.0217C137.825 69.0096 135.631 72.8377 131.983 75.649C128.306 78.4829 123.52 80 117.533 80C113.692 80 109.905 79.4034 106.967 78.2417L103.637 76.9253L109.173 58.8421L112.986 60.188C113.904 60.512 114.635 60.7014 115.195 60.8004L106.99 36.428C107.058 37.3085 107.093 38.2059 107.093 39.1189V42.7313H107.773L107.042 47.2297C106.163 52.6398 103.362 57.1697 98.9683 60.2872C94.6302 63.3652 88.9714 64.9119 82.511 64.9119C74.9624 64.9119 68.4375 62.6342 63.7932 58.0111C61.5135 55.7418 59.7943 53.0144 58.6344 49.9242V64.141H35.5727V42.1145H23.0617V64.141H0ZM76.3283 46.5198C75.9042 45.5704 75.6828 44.4833 75.6828 43.304V42.6432H103.216V39.1189C103.216 39.0011 103.215 38.8836 103.214 38.7665C103.071 25.5118 94.8441 17.4229 82.1806 17.4229C69.0749 17.4229 60.7048 26.1233 60.7048 39.2291C60.7048 52.913 68.9648 61.0352 82.511 61.0352C92.4125 61.0352 99.3316 57.0325 102.109 50.4846C102.621 49.276 102.993 47.9807 103.216 46.6079H89.3392C88.4581 49.0033 85.9526 50.3524 82.8414 50.3524C79.6328 50.3524 77.3696 48.851 76.3283 46.5198ZM135.485 63.7885L150.903 17.9736H134.934L127.996 47.2687H127.555L120.727 17.9736H104.868L119.736 62.1366L119.405 62.9075C118.558 64.8539 116.378 65.1244 113.514 64.4C112.934 64.2534 112.326 64.0661 111.696 63.8436L108.392 74.6366C109.152 74.9368 110.004 75.1974 110.928 75.4129C111.318 75.5038 111.72 75.5866 112.133 75.661C113.794 75.9604 115.631 76.1234 117.533 76.1234C128.161 76.1234 133.144 70.7819 135.485 63.7885ZM19.185 3.87665V25.9031H39.4493V3.87665H54.7577V60.2643H39.4493V38.2379H19.185V60.2643H3.87665V3.87665H19.185ZM75.6828 34.2731H89.2291C89.1945 32.7535 88.6738 31.4264 87.8037 30.3965C86.593 28.9633 84.7058 28.1057 82.511 28.1057C80.3424 28.1057 78.408 28.9586 77.1564 30.3965C76.2628 31.423 75.7172 32.7478 75.6828 34.2731Z" fill="black"/>
</svg>
