<svg width="40" height="40" viewBox="0 0 40 40" fill="none" xmlns="http://www.w3.org/2000/svg">
<path fill-rule="evenodd" clip-rule="evenodd" d="M29.894 14.0869C29.333 14.9074 28.655 15.6064 27.86 16.1839C27.8682 16.3009 27.8727 16.4764 27.8727 16.7111C27.8727 17.7994 27.7137 18.8854 27.395 19.9691C27.077 21.0536 26.594 22.0931 25.9452 23.0891C25.2965 24.0859 24.524 24.9664 23.6285 25.7321C22.733 26.4986 21.653 27.1091 20.3892 27.5659C19.1255 28.0219 17.7732 28.2499 16.334 28.2499C14.0652 28.2499 11.9892 27.6431 10.106 26.4296C10.3992 26.4626 10.7255 26.4799 11.0855 26.4799C12.9687 26.4799 14.6472 25.9016 16.1202 24.7466C15.2412 24.7301 14.4545 24.4601 13.76 23.9366C13.0647 23.4139 12.5877 22.7464 12.3282 21.9341C12.605 21.9761 12.86 21.9971 13.094 21.9971C13.454 21.9971 13.8102 21.9514 14.1612 21.8591C13.2237 21.6664 12.4475 21.1999 11.8325 20.4589C11.2175 19.7179 10.9092 18.8584 10.9092 17.8789V17.8286C11.4785 18.1466 12.0897 18.3184 12.743 18.3431C12.1902 17.9749 11.7507 17.4934 11.4245 16.8994C11.0982 16.3054 10.9347 15.6604 10.9347 14.9659C10.9347 14.2294 11.1185 13.5469 11.4875 12.9191C12.5 14.1664 13.7322 15.1646 15.185 15.9139C16.637 16.6631 18.1917 17.0794 19.8492 17.1634C19.7825 16.8454 19.7487 16.5356 19.7487 16.2341C19.7487 15.1121 20.1447 14.1559 20.9352 13.3646C21.7265 12.5741 22.6827 12.1781 23.8047 12.1781C24.9762 12.1781 25.964 12.6056 26.7672 13.4591C27.68 13.2836 28.538 12.9566 29.3412 12.4796C29.0315 13.4426 28.4375 14.1874 27.5585 14.7146C28.337 14.6314 29.1155 14.4221 29.894 14.0869V14.0869Z" fill="black"/>
</svg>
